<?xml version="1.0" standalone="no"?><!DOCTYPE svg PUBLIC "-//W3C//DTD SVG 1.1//EN" "http://www.w3.org/Graphics/SVG/1.1/DTD/svg11.dtd"><svg t="1765163417459" class="icon" viewBox="0 0 1024 1024" version="1.1" xmlns="http://www.w3.org/2000/svg" p-id="6816" xmlns:xlink="http://www.w3.org/1999/xlink" width="200" height="200"><path d="M331.989333 153.813333c2.517333 13.354667 5.077333 24.064 7.722667 34.730667-92.330667 45.354667-151.381333 98.730667-161.621333 160.170667 7.68 56.106667 61.525333 77.44 130.816 82.730666 20.522667-146.858667 64-299.008 169.386666-328.533333 76.8-13.354667 128.341333 53.333333 161.706667 128-12.8 2.645333-23.168 8.064-35.925333 10.709333a41.856 41.856 0 0 0-51.2-10.709333 258.602667 258.602667 0 0 0-79.530667 184.32c123.178667-18.730667 292.565333-104.192 292.565333-192.384 0-53.333333-41.088-69.461333-87.296-77.44a341.845333 341.845333 0 0 0-10.325333-50.389333c143.701333-2.645333 266.922667 72.106667 254.08 168.234666-41.130667 197.632-292.608 272.469333-451.626667 307.2 0 149.589333 25.6 240.384 79.488 253.781334 25.6 0 48.768-37.333333 71.850667-168.234667 23.168-5.333333 43.648-13.354667 66.816-18.730667-23.168 203.008-105.216 323.2-179.626667 328.533334-76.8 5.333333-136.021333-69.504-172.032-184.277334a712.789333 712.789333 0 0 1-33.322666-195.029333c-130.986667-13.312-246.485333-48-251.733334-154.837333-2.474667-109.397333 123.306667-224.597333 279.808-277.845334z" fill="#025BA4" p-id="6817"></path></svg>