<?xml version="1.0" standalone="no"?><!DOCTYPE svg PUBLIC "-//W3C//DTD SVG 1.1//EN" "http://www.w3.org/Graphics/SVG/1.1/DTD/svg11.dtd"><svg t="1765163440925" class="icon" viewBox="0 0 1024 1024" version="1.1" xmlns="http://www.w3.org/2000/svg" p-id="5305" xmlns:xlink="http://www.w3.org/1999/xlink" width="200" height="200"><path d="M514.56 102.4C296.96 102.4 116.224 296.448 131.584 514.56c13.824 199.168 186.368 355.84 382.976 355.84s369.152-156.672 382.976-355.84c15.36-218.112-165.376-412.16-382.976-412.16z" fill="#205686" p-id="5306"></path><path d="M343.04 803.84c22.016 15.872 56.32 36.864 101.888 51.2 38.912 11.776 72.704 14.848 97.792 15.36 22.016-3.584 44.544-6.656 66.56-10.24-36.864-2.048-87.04-9.216-142.848-29.696-42.496-15.872-76.8-34.816-102.912-52.224-7.168-3.072-15.872-1.024-20.48 5.12a16.896 16.896 0 0 0 0 20.48zM348.16 737.28c35.84 25.6 86.528 55.808 151.552 79.36 53.248 19.456 101.888 28.672 140.288 33.28 15.36-6.656 30.72-13.824 46.08-20.48-44.032-4.608-101.376-14.848-164.864-37.376C454.144 768 401.408 737.28 363.52 711.68c-7.168-4.096-16.384-2.048-20.48 5.12s-2.048 16.384 5.12 20.48zM358.4 486.4c35.328 43.52 98.304 110.08 194.56 163.84 103.424 57.856 198.656 75.776 256 81.92 6.656-8.704 13.824-16.896 20.48-25.6-47.616-5.632-106.496-17.408-169.984-42.496C520.192 609.28 431.104 520.704 384 465.92c-7.68-2.048-15.36 0-20.48 5.12-5.632 6.144-5.12 13.824-5.12 15.36z" fill="#FFFFFF" p-id="5307"></path><path d="M353.28 573.44c48.64 48.64 131.584 117.76 250.88 163.84 58.88 22.528 113.664 34.816 158.72 40.96 10.24-8.704 20.48-16.896 30.72-25.6-47.104-6.656-103.424-18.944-164.864-42.496-119.296-46.08-203.776-113.152-254.976-162.304-7.168-3.072-15.872-1.024-20.48 5.12a16.896 16.896 0 0 0 0 20.48z" fill="#FFFFFF" p-id="5308"></path><path d="M353.28 655.36c41.984 37.376 110.08 88.064 204.8 122.88 58.368 21.504 111.104 31.232 153.6 35.84 10.24-6.656 20.48-13.824 30.72-20.48-45.568-6.144-101.888-17.408-163.84-40.96-94.72-35.84-164.352-84.992-209.92-122.88-7.168-4.096-16.384-2.048-20.48 5.12s-2.048 16.384 5.12 20.48zM695.808 161.28c-22.016-15.872-56.32-36.864-101.888-51.2-38.912-11.776-72.704-14.848-97.792-15.36-22.016 3.584-44.544 6.656-66.56 10.24 36.864 2.048 87.04 9.216 142.848 29.696 42.496 15.872 76.8 34.816 102.912 52.224 7.168 3.072 15.872 1.024 20.48-5.12 4.608-6.144 4.608-14.336 0-20.48zM690.688 227.84c-35.84-25.6-86.528-55.808-151.552-79.36-53.248-19.456-101.888-28.672-140.288-33.28-15.36 6.656-30.72 13.824-46.08 20.48 44.032 4.608 101.376 14.848 164.864 37.376 67.072 24.064 119.808 54.272 157.696 80.384 7.168 4.096 16.384 2.048 20.48-5.12s2.048-16.384-5.12-20.48zM680.448 478.72c-35.328-43.52-98.304-110.08-194.56-163.84-103.424-57.856-198.656-75.776-256-81.92-6.656 8.704-13.824 16.896-20.48 25.6 47.616 5.632 106.496 17.408 169.984 42.496 139.264 54.784 228.864 143.36 275.456 198.144 7.68 2.048 15.36 0 20.48-5.12 5.632-6.144 5.12-14.336 5.12-15.36z" fill="#FFFFFF" p-id="5309"></path><path d="M685.568 391.68c-48.64-48.64-131.584-117.76-250.88-163.84-58.88-22.528-113.664-34.816-158.72-40.96-10.24 8.704-20.48 16.896-30.72 25.6 47.104 6.656 103.424 18.944 164.864 42.496 119.808 46.08 203.776 113.152 254.976 162.304 7.168 3.072 15.872 1.024 20.48-5.12 4.608-6.144 4.608-14.336 0-20.48z" fill="#FFFFFF" p-id="5310"></path><path d="M685.568 309.76c-41.984-37.376-110.08-88.064-204.8-122.88-58.368-21.504-111.104-31.232-153.6-35.84-10.24 6.656-20.48 13.824-30.72 20.48 45.568 6.144 101.888 17.408 163.84 40.96 94.72 35.84 164.352 84.992 209.92 122.88 7.168 4.096 16.384 2.048 20.48-5.12 4.096-7.168 2.048-16.384-5.12-20.48z" fill="#FFFFFF" p-id="5311"></path></svg>