<svg t="1777874742854" class="icon" viewBox="0 0 1024 1024" version="1.1" xmlns="http://www.w3.org/2000/svg" p-id="13571" width="200" height="200"><path d="M512 57.677643C226.27383 57.677643 57.677643 226.27383 57.677643 512s168.596187 454.322357 454.322357 454.322357 454.322357-168.596187 454.322357-454.322357S797.72617 57.677643 512 57.677643z" fill="#1296db" p-id="13572" data-spm-anchor-id="a313x.search_index.0.i24.43193a81ZcyisA" class="selected"></path><path d="M286.64635 708.389712c0 11.801733 4.702946 23.071057 12.955286 31.412132s19.610399 12.955286 31.412132 12.955286h361.949393c24.490815 0 44.367418-19.876603 44.367418-44.367418v-308.797227l-122.010399-128.310572h-284.306412c-11.801733 0-23.071057 4.702946-31.412132 12.955286s-12.955286 19.610399-12.955286 31.412132v392.740381z" fill="#ffffff" p-id="13573" data-spm-anchor-id="a313x.search_index.0.i23.43193a81ZcyisA" class=""></path><path d="M692.963161 766.067355h-361.949393c-15.439861 0-29.90364-6.033969-40.818024-16.859618s-16.859619-25.378163-16.859619-40.818025v-392.740381c0-15.439861 6.033969-29.90364 16.859619-40.818024 10.914385-10.82565 25.378163-16.859619 40.818024-16.859619h289.985442l129.641594 136.296707v314.121317c0 31.767071-25.821837 57.677643-57.677643 57.677643z m-361.949393-481.475216c-8.25234 0-16.061005 3.194454-21.917505 9.139688-5.945234 5.856499-9.139688 13.665165-9.139688 21.917504v392.740381c0 8.25234 3.194454 16.061005 9.139688 21.917505 5.856499 5.856499 13.665165 9.139688 21.917505 9.139688h361.949393c17.125823 0 31.057192-13.931369 31.057193-31.057193v-303.473137l-114.467938-120.324436h-278.538648z" fill="#FFFFFF" p-id="13574"></path><path d="M464.64843 699.338759l0.532409-89.444714-50.401387-16.14974-50.401386 16.14974v45.077296c0 11.801733 4.702946 23.071057 12.955286 31.412132s19.610399 12.955286 31.412132 12.955286h55.902946z m97.519584 0l0.266204-89.444714-48.626689-16.14974-48.62669 16.14974-0.532409 89.444714h97.519584z m48.804159-152.801386l-48.183015-14.641248-48.981629 14.641248-47.739342-14.641248v-77.99792h-57.322703c-11.801733 0-23.071057 4.702946-31.412132 12.955285-8.341075 8.341075-12.955286 19.610399-12.955286 31.412132v111.539688l50.401386-16.14974 50.401387 16.14974 48.62669-16.14974 48.626689 16.14974 48.62669-16.14974 48.62669 16.14974v-77.99792l-48.715425 14.729983z m48.62669-48.271751c0-11.801733-4.702946-23.071057-12.955286-31.412132-8.341075-8.341075-19.610399-12.955286-31.412132-12.955285h-52.708492l0.35494 77.99792 48.183015 14.641248 48.62669-14.641248-0.088735-33.630503z m-97.430849 201.073137h53.152166c24.490815 0 44.367418-19.876603 44.367418-44.367418v-45.077296l-48.62669-16.14974-48.62669 16.14974-0.266204 89.444714z m0.354939-245.440554h-96.454766v77.99792l47.739342 14.641248 49.070364-14.641248-0.35494-77.99792z" fill="#E1B460" p-id="13575"></path><path d="M557.731272 703.775501h-148.985788c-13.044021 0-25.289428-5.057886-34.517851-14.286309s-14.286308-21.562565-14.286309-34.517851v-156.705719c0-13.044021 5.057886-25.289428 14.286309-34.517851 9.228423-9.228423 21.47383-14.286308 34.517851-14.286308h206.574696c13.044021 0 25.289428 5.057886 34.517851 14.286308s14.286308 21.47383 14.286309 34.517851v156.616985c0 26.886655-21.917504 48.804159-48.80416 48.804159l-57.588908 0.088735z m-88.557366-8.873484h88.557366l0.266205-81.813518-44.189948-14.729983-44.189948 14.641248-0.443675 81.902253z m-100.359098-81.813518v41.882842c0 10.64818 4.170537 20.675217 11.712998 28.217678s17.569497 11.712998 28.217678 11.712998h51.554939l0.443674-81.813518-45.964645-14.729983-45.964644 14.729983z m198.056152 0l-0.266204 81.813518h48.626689c22.006239 0 39.930676-17.924437 39.930676-39.930676v-41.882842l-44.189948-14.641248-44.101213 14.641248z m-152.091508-24.04714l50.401387 16.14974 48.62669-16.14974 48.626689 16.14974 48.62669-16.14974 44.189948 14.641248v-65.841248l-44.189948 13.310225-48.183015-14.641248-49.070364 14.641248-48.360486-14.818717h-0.177469v-0.088735l-3.549394-1.064818v-76.844368h-52.885962c-10.64818 0-20.675217 4.170537-28.217677 11.712999s-11.712998 17.569497-11.712999 28.217677v105.505719l45.87591-14.729982z m152.535182-60.428423l43.746274 13.310225 44.189948-13.310225v-30.258579c0-10.64818-4.170537-20.675217-11.712998-28.217678s-17.569497-11.712998-28.217678-11.712998h-48.27175l0.266204 70.189255z m-96.809705 0l43.3026 13.310225 44.633622-13.310225-0.266205-70.189255h-87.581282v70.189255z" fill="#666666" p-id="13576"></path></svg>